<svg width="618" height="678" viewBox="0 0 618 678" fill="none" xmlns="http://www.w3.org/2000/svg">
<path d="M480.507 160.489C480.419 129.18 471.171 98.5825 453.904 72.4665C425.062 28.807 375.542 0 319.295 0C318.297 0 317.3 2.09947e-07 316.342 0.0299244C304.492 0.224904 292.7 1.73027 281.181 4.51856L280.812 4.60334C276.686 5.60082 272.631 6.76453 268.648 8.0945C218.615 25.266 182.646 72.7109 182.646 128.564C182.645 145.278 185.936 161.828 192.332 177.269C198.728 192.71 208.104 206.74 219.923 218.557C231.743 230.374 245.774 239.747 261.217 246.14C276.659 252.534 293.21 255.822 309.923 255.817C312.078 255.817 314.218 255.764 316.342 255.658C323.901 255.288 331.412 254.243 338.785 252.535H338.88C341.843 251.842 344.77 251.039 347.643 250.161L347.793 250.117L347.952 250.062L369.398 271.507C352.55 278.545 334.586 282.534 316.342 283.288C314.128 283.377 311.908 283.427 309.669 283.427C235.103 283.427 172.856 230.696 158.188 160.489H158.093C158.093 160.738 158.093 160.987 158.093 161.227C158.093 249.274 228.684 320.823 316.357 322.408C317.355 322.433 318.322 322.438 319.31 322.438C340.48 322.439 361.444 318.27 381.003 310.168C400.562 302.067 418.334 290.192 433.303 275.222C448.273 260.252 460.147 242.48 468.248 222.92C476.349 203.361 480.518 182.397 480.516 161.227C480.516 160.977 480.516 160.728 480.516 160.489M420.294 227.13C415.437 234.562 409.776 241.437 403.412 247.628L386.215 230.436L383.991 228.212L356.994 201.21L348.99 193.231C349.922 194.163 337.409 204.377 336.177 205.2C331.122 208.65 325.542 211.258 319.654 212.926C282.593 223.344 242.848 193.879 229.557 160.504C225.252 149.673 223.176 138.085 223.452 126.434C223.729 114.782 226.352 103.306 231.166 92.6918C235.98 82.0776 242.885 72.5432 251.468 64.6591C260.052 56.775 270.137 50.703 281.121 46.8065C281.165 46.7843 281.21 46.766 281.256 46.7516C284.735 45.5248 288.29 44.5253 291.899 43.7592C299.919 41.9019 308.107 40.8675 316.337 40.672C317.335 40.672 318.302 40.6371 319.29 40.6371C376.899 40.6371 425.077 81.0348 437.032 135.053C438.875 143.407 439.828 151.933 439.874 160.489C439.874 160.738 439.874 160.987 439.874 161.227C439.913 184.635 433.103 207.543 420.284 227.13" fill="white"/>
<path d="M411.581 161.226C411.611 177.303 407.471 193.112 399.566 207.11L376.091 183.62L359.662 167.191C360.02 164.972 360.243 162.734 360.331 160.488C360.356 159.905 360.376 159.311 360.376 158.713C360.376 158.528 360.376 158.334 360.376 158.149C360.373 145.013 355.826 132.282 347.505 122.117C339.185 111.952 327.604 104.979 314.727 102.38C301.851 99.7812 288.472 101.717 276.86 107.86C265.249 114.003 256.12 123.973 251.023 136.08C250.651 133.403 250.466 130.703 250.469 128C250.469 111.143 257.636 94.5851 270.443 83.6478C286.737 69.6832 308.427 64.8355 329.409 67.8728C350.078 70.9402 369.245 80.4747 384.16 95.1088C401.701 112.495 410.958 135.975 411.591 160.488C411.591 160.738 411.591 160.987 411.591 161.226" fill="white"/>
<path d="M109.602 478.635C98.8448 478.635 89.3992 476.405 81.2655 471.945C73.2193 467.397 66.9659 461.012 62.5055 452.791C58.1326 444.57 55.9461 434.906 55.9461 423.799C55.9461 412.691 58.1326 403.027 62.5055 394.806C66.9659 386.585 73.2193 380.244 81.2655 375.784C89.3992 371.236 98.8448 368.962 109.602 368.962C118.261 368.962 125.87 370.405 132.429 373.291C139.076 376.177 144.542 380.375 148.828 385.885C153.113 391.308 155.868 397.823 157.093 405.432H136.496C135.271 399.485 132.298 394.85 127.575 391.526C122.94 388.203 116.949 386.541 109.602 386.541C99.1071 386.541 90.8423 389.865 84.8076 396.511C78.7729 403.071 75.7556 412.167 75.7556 423.799C75.7556 435.431 78.7729 444.57 84.8076 451.217C90.8423 457.776 99.1071 461.056 109.602 461.056C116.949 461.056 122.94 459.438 127.575 456.202C132.298 452.879 135.271 448.2 136.496 442.165H157.093C155.868 449.774 153.113 456.333 148.828 461.843C144.542 467.266 139.076 471.42 132.429 474.306C125.87 477.192 118.261 478.635 109.602 478.635ZM174.744 476.799V417.633H165.036V398.086H184.976V413.304H190.486C192.673 408.056 196.04 404.077 200.588 401.365C205.136 398.654 210.339 397.299 216.199 397.299H222.759V414.091H215.281C208.197 414.091 202.862 416.146 199.276 420.257C195.777 424.367 194.028 429.833 194.028 436.655V476.799H174.744ZM236.458 508.284V492.673H254.299L260.99 476.405L226.618 398.086H247.215L270.829 453.841H271.485L294.312 398.086H314.121L280.406 476.799L273.584 493.066C271.485 497.876 269.167 501.593 266.631 504.217C264.182 506.928 260.246 508.284 254.824 508.284H236.458ZM329.013 508.284V417.633H319.305V398.086H339.377V410.68H344.887C347.598 406.132 351.271 402.634 355.907 400.185C360.542 397.736 366.139 396.511 372.699 396.511C380.833 396.511 387.654 398.217 393.164 401.628C398.762 404.951 403.003 409.674 405.89 415.796C408.776 421.918 410.219 429.134 410.219 437.442C410.219 445.751 408.776 452.966 405.89 459.088C403.091 465.211 399.024 469.977 393.689 473.388C388.354 476.711 381.926 478.373 374.404 478.373C368.457 478.373 363.341 477.236 359.055 474.962C354.77 472.688 351.446 469.496 349.085 465.385H348.56V508.284H329.013ZM369.157 461.45C376.241 461.45 381.576 459.351 385.162 455.153C388.835 450.867 390.672 444.964 390.672 437.442C390.672 429.921 388.835 424.061 385.162 419.863C381.576 415.577 376.241 413.435 369.157 413.435C362.947 413.435 357.962 415.228 354.201 418.813C350.441 422.312 348.56 427.122 348.56 433.244V441.64C348.56 447.762 350.441 452.616 354.201 456.202C357.962 459.701 362.947 461.45 369.157 461.45ZM447.616 476.799C442.456 476.799 438.433 475.487 435.546 472.863C432.748 470.239 431.348 466.26 431.348 460.925V413.304H417.442V398.086H431.48V374.472H450.633V398.086H469.655V413.304H450.896V461.45H471.492V476.799H447.616ZM521.28 478.373C512.797 478.373 505.406 476.711 499.109 473.388C492.9 469.977 488.046 465.211 484.547 459.088C481.137 452.966 479.431 445.751 479.431 437.442C479.431 429.046 481.137 421.787 484.547 415.665C488.046 409.543 492.944 404.82 499.241 401.497C505.538 398.173 512.884 396.511 521.28 396.511C529.851 396.511 537.198 398.173 543.32 401.497C549.53 404.82 554.34 409.543 557.751 415.665C561.162 421.787 562.867 429.046 562.867 437.442C562.867 445.751 561.162 453.01 557.751 459.22C554.34 465.342 549.53 470.064 543.32 473.388C537.11 476.711 529.764 478.373 521.28 478.373ZM521.28 461.319C528.277 461.319 533.699 459.22 537.548 455.022C541.396 450.736 543.32 444.876 543.32 437.442C543.32 429.921 541.396 424.061 537.548 419.863C533.699 415.665 528.277 413.566 521.28 413.566C514.196 413.566 508.686 415.665 504.75 419.863C500.902 424.061 498.978 429.877 498.978 437.311C498.978 444.833 500.902 450.736 504.75 455.022C508.686 459.22 514.196 461.319 521.28 461.319Z" fill="white"/>
<path d="M58.3993 638.135H38.7141V549.158H3.14962V531.835H93.9638V549.158H58.3993V638.135ZM106.228 638.135V527.898H125.782V571.075H126.307C128.844 566.788 132.3 563.55 136.674 561.363C141.049 559.088 146.211 557.951 152.16 557.951C162.046 557.951 169.877 560.926 175.651 566.875C181.513 572.824 184.444 580.742 184.444 590.628V638.135H164.89V594.303C164.89 588.091 163.227 583.367 159.903 580.13C156.578 576.893 151.723 575.274 145.336 575.274C138.949 575.274 134.093 576.893 130.769 580.13C127.444 583.367 125.782 588.091 125.782 594.303V638.135H106.228ZM208.646 638.135V578.949H198.935V559.395H218.882V574.618H224.394C226.582 569.368 229.95 565.388 234.499 562.676C239.049 559.963 244.254 558.607 250.116 558.607H256.678V575.405H249.198C242.111 575.405 236.774 577.461 233.187 581.573C229.687 585.685 227.938 591.153 227.938 597.978V638.135H208.646ZM302.079 639.71C293.592 639.71 286.243 638.048 280.031 634.723C273.82 631.311 269.008 626.543 265.596 620.419C262.271 614.207 260.609 606.901 260.609 598.502C260.609 590.103 262.271 582.886 265.596 576.849C268.92 570.725 273.645 566.044 279.769 562.807C285.893 559.482 293.067 557.82 301.291 557.82C309.34 557.82 316.252 559.395 322.026 562.544C327.801 565.606 332.263 570.068 335.412 575.93C338.562 581.704 340.137 588.572 340.137 596.534V603.358H279.507C280.206 610.007 282.481 615.126 286.331 618.713C290.268 622.212 295.473 623.962 301.948 623.962C306.76 623.962 310.653 623.087 313.627 621.337C316.69 619.5 318.833 616.788 320.058 613.201H339.743C337.906 621.512 333.663 628.03 327.013 632.755C320.452 637.392 312.14 639.71 302.079 639.71ZM279.9 590.103H321.37C320.583 584.679 318.483 580.567 315.071 577.767C311.659 574.88 307.066 573.437 301.291 573.437C295.605 573.437 290.924 574.88 287.249 577.767C283.575 580.655 281.125 584.767 279.9 590.103ZM379.072 639.579C369.886 639.579 362.668 637.348 357.419 632.886C352.257 628.424 349.676 622.518 349.676 615.169C349.676 607.47 352.301 601.521 357.55 597.321C362.887 593.122 370.542 591.022 380.516 591.022H404.532V587.873C404.532 578.249 398.933 573.437 387.734 573.437C378.285 573.437 372.554 576.849 370.542 583.673H350.988C352.563 575.274 356.5 568.887 362.799 564.513C369.186 560.051 377.498 557.82 387.734 557.82C399.282 557.82 408.075 560.445 414.112 565.694C420.149 570.856 423.167 578.424 423.167 588.397V618.581H432.485V638.135H412.406V625.537H406.894C404.182 629.999 400.507 633.455 395.87 635.904C391.321 638.354 385.722 639.579 379.072 639.579ZM381.96 624.487C386.247 624.487 390.096 623.699 393.508 622.125C396.92 620.462 399.589 618.275 401.513 615.563C403.526 612.763 404.532 609.657 404.532 606.245V604.408H381.566C372.729 604.408 368.311 607.689 368.311 614.251C368.311 617.488 369.492 620.025 371.855 621.862C374.304 623.612 377.673 624.487 381.96 624.487ZM479.438 639.71C471.389 639.71 464.565 638.048 458.965 634.723C453.366 631.311 449.079 626.543 446.104 620.419C443.217 614.207 441.774 606.989 441.774 598.765C441.774 590.453 443.174 583.236 445.973 577.111C448.86 570.987 452.972 566.263 458.309 562.938C463.734 559.526 470.208 557.82 477.732 557.82C483.681 557.82 488.799 558.957 493.086 561.232C497.373 563.419 500.654 566.613 502.929 570.812H503.454V527.898H523.008V618.581H532.719V638.135H512.771V625.537H507.26C504.46 630.086 500.742 633.586 496.105 636.036C491.468 638.485 485.912 639.71 479.438 639.71ZM482.85 622.781C489.149 622.781 494.136 621.031 497.811 617.531C501.573 613.944 503.454 609.089 503.454 602.964V594.565C503.454 588.441 501.573 583.629 497.811 580.13C494.136 576.543 489.149 574.749 482.85 574.749C475.851 574.749 470.514 576.893 466.839 581.18C463.165 585.379 461.328 591.241 461.328 598.765C461.328 606.289 463.165 612.195 466.839 616.482C470.514 620.681 475.851 622.781 482.85 622.781ZM579.709 639.71C568.335 639.71 559.368 637.348 552.806 632.623C546.244 627.811 542.701 621.119 542.176 612.545H561.205C561.818 616.657 563.699 619.719 566.848 621.731C569.998 623.656 574.547 624.618 580.497 624.618C590.558 624.618 595.588 621.687 595.588 615.825C595.588 613.463 594.801 611.626 593.226 610.314C591.739 609.001 589.202 607.995 585.615 607.295L568.292 604.014C552.894 601.04 545.195 593.778 545.195 582.229C545.195 574.793 548.125 568.887 553.987 564.513C559.849 560.051 567.942 557.82 578.266 557.82C588.589 557.82 596.77 560.095 602.806 564.644C608.931 569.106 612.343 575.449 613.043 583.673H594.145C593.183 579.736 591.345 576.893 588.633 575.143C586.008 573.305 582.203 572.387 577.216 572.387C572.754 572.387 569.342 573.087 566.979 574.487C564.617 575.886 563.436 577.942 563.436 580.655C563.436 582.667 564.18 584.285 565.667 585.51C567.154 586.735 569.517 587.654 572.754 588.266L590.47 591.678C598.519 593.253 604.425 595.878 608.187 599.552C611.949 603.227 613.83 608.17 613.83 614.382C613.83 622.343 610.899 628.555 605.037 633.017C599.176 637.479 590.733 639.71 579.709 639.71Z" fill="white"/>
</svg>
