<svg width="37" height="37" viewBox="0 0 37 37" fill="none" xmlns="http://www.w3.org/2000/svg">
<rect width="36.5283" height="36.5283" rx="7.61006" fill="#FF4500"/>
<path d="M21.6296 10.8787C21.8989 12.0508 22.9241 12.9239 24.1483 12.9239C25.5775 12.9239 26.7362 11.7344 26.7362 10.2671C26.7362 8.79986 25.5775 7.61035 24.1483 7.61035C22.8987 7.61035 21.8565 8.51961 21.6138 9.72904C19.521 9.95947 17.8867 11.7817 17.8867 13.9901C17.8867 13.9951 17.8867 13.9988 17.8867 14.0038C15.6107 14.1022 13.5324 14.7673 11.8823 15.8173C11.2696 15.3303 10.5004 15.0401 9.66572 15.0401C7.66264 15.0401 6.03931 16.7066 6.03931 18.7631C6.03931 20.2552 6.89344 21.5406 8.12731 22.1348C8.24743 26.4569 12.8347 29.9332 18.4776 29.9332C24.1204 29.9332 28.7138 26.4531 28.8278 22.1273C30.052 21.5294 30.8988 20.2478 30.8988 18.7643C30.8988 16.7079 29.2755 15.0413 27.2724 15.0413C26.4414 15.0413 25.6758 15.3291 25.0643 15.8123C23.3997 14.7549 21.2984 14.0897 18.9993 14.0013C18.9993 13.9976 18.9993 13.9951 18.9993 13.9913C18.9993 12.4095 20.1446 11.0967 21.6296 10.8812V10.8787ZM11.7367 21.1259C11.7974 19.7757 12.6709 18.7394 13.6864 18.7394C14.7019 18.7394 15.4784 19.8342 15.4177 21.1844C15.3571 22.5346 14.5988 23.0254 13.5821 23.0254C12.5654 23.0254 11.6761 22.4761 11.7367 21.1259ZM23.2699 18.7394C24.2866 18.7394 25.1602 19.7757 25.2196 21.1259C25.2803 22.4761 24.3897 23.0254 23.3743 23.0254C22.3588 23.0254 21.5993 22.5358 21.5386 21.1844C21.4779 19.8342 22.2532 18.7394 23.2699 18.7394ZM22.0615 24.2497C22.252 24.2697 22.3733 24.4727 22.2993 24.6545C21.6745 26.1878 20.1992 27.2652 18.4776 27.2652C16.756 27.2652 15.2819 26.1878 14.6558 24.6545C14.5818 24.4727 14.7031 24.2697 14.8936 24.2497C16.0098 24.1339 17.217 24.0704 18.4776 24.0704C19.7381 24.0704 20.9441 24.1339 22.0615 24.2497Z" fill="white"/>
</svg>
