<svg width="25" height="23" viewBox="0 0 25 23" fill="none" xmlns="http://www.w3.org/2000/svg">
<path d="M15.5903 3.26834C15.8596 4.44041 16.8848 5.31354 18.109 5.31354C19.5382 5.31354 20.6969 4.12404 20.6969 2.65677C20.6969 1.18951 19.5382 0 18.109 0C16.8594 0 15.8172 0.909256 15.5745 2.11869C13.4817 2.34912 11.8474 4.17137 11.8474 6.37974C11.8474 6.38472 11.8474 6.38846 11.8474 6.39344C9.57135 6.49184 7.49305 7.15696 5.84302 8.20697C5.23033 7.71995 4.46113 7.42974 3.62641 7.42974C1.62333 7.42974 0 9.0963 0 11.1527C0 12.6449 0.854129 13.9303 2.08801 14.5244C2.20812 18.8465 6.79543 22.3229 12.4383 22.3229C18.0811 22.3229 22.6745 18.8428 22.7885 14.517C24.0127 13.9191 24.8595 12.6374 24.8595 11.154C24.8595 9.09754 23.2362 7.43099 21.2331 7.43099C20.4021 7.43099 19.6365 7.71871 19.025 8.20199C17.3604 7.14451 15.2591 6.47938 12.96 6.39095C12.96 6.38721 12.96 6.38472 12.96 6.38098C12.96 4.79913 14.1053 3.48631 15.5903 3.27083V3.26834ZM5.69743 13.5155C5.7581 12.1653 6.63164 11.129 7.64713 11.129C8.66262 11.129 9.4391 12.2239 9.37844 13.5741C9.31778 14.9243 8.55949 15.415 7.54279 15.415C6.52608 15.415 5.63677 14.8657 5.69743 13.5155ZM17.2306 11.129C18.2473 11.129 19.1209 12.1653 19.1803 13.5155C19.241 14.8657 18.3504 15.415 17.3349 15.415C16.3195 15.415 15.56 14.9255 15.4993 13.5741C15.4386 12.2239 16.2139 11.129 17.2306 11.129ZM16.0222 16.6394C16.2127 16.6593 16.334 16.8623 16.26 17.0442C15.6352 18.5775 14.1599 19.6549 12.4383 19.6549C10.7167 19.6549 9.24256 18.5775 8.61652 17.0442C8.54251 16.8623 8.66383 16.6593 8.85431 16.6394C9.97051 16.5235 11.1777 16.46 12.4383 16.46C13.6988 16.46 14.9048 16.5235 16.0222 16.6394Z" fill="white"/>
</svg>
