<svg width="25" height="25" viewBox="0 0 25 25" fill="none" xmlns="http://www.w3.org/2000/svg">
<g clip-path="url(#clip0_1448_9108)">
<path d="M12.1761 0C5.45148 0 0 5.45148 0 12.1761C0 17.8862 3.93142 22.6777 9.23484 23.9937V15.8971H6.72413V12.1761H9.23484V10.5728C9.23484 6.42849 11.1104 4.50759 15.1792 4.50759C15.9507 4.50759 17.2818 4.65906 17.8263 4.81005V8.18283C17.5389 8.15263 17.0397 8.13753 16.4197 8.13753C14.4233 8.13753 13.6518 8.89391 13.6518 10.8601V12.1761H17.629L16.9457 15.8971H13.6518V24.2631C19.681 23.5349 24.3527 18.4015 24.3527 12.1761C24.3522 5.45148 18.9007 0 12.1761 0Z" fill="white"/>
</g>
<defs>
<clipPath id="clip0_1448_9108">
<rect width="24.3522" height="24.3522" fill="white"/>
</clipPath>
</defs>
</svg>
