<svg width="37" height="37" viewBox="0 0 37 37" fill="none" xmlns="http://www.w3.org/2000/svg">
<rect width="36.5283" height="36.5283" rx="7.61006" fill="#0866FF"/>
<g clip-path="url(#clip0_2186_8731)">
<path d="M18.4691 6.5957C11.7445 6.5957 6.29297 12.0472 6.29297 18.7718C6.29297 24.4819 10.2244 29.2734 15.5278 30.5894V22.4928H13.0171V18.7718H15.5278V17.1685C15.5278 13.0242 17.4034 11.1033 21.4722 11.1033C22.2437 11.1033 23.5748 11.2548 24.1193 11.4058V14.7785C23.8319 14.7483 23.3327 14.7332 22.7127 14.7332C20.7163 14.7332 19.9448 15.4896 19.9448 17.4558V18.7718H23.922L23.2387 22.4928H19.9448V30.8588C25.9739 30.1306 30.6457 24.9972 30.6457 18.7718C30.6452 12.0472 25.1937 6.5957 18.4691 6.5957Z" fill="white"/>
</g>
<defs>
<clipPath id="clip0_2186_8731">
<rect width="24.3522" height="24.3522" fill="white" transform="translate(6.29297 6.5957)"/>
</clipPath>
</defs>
</svg>
