<svg width="25" height="25" viewBox="0 0 25 25" fill="none" xmlns="http://www.w3.org/2000/svg">
<path d="M12.1276 0C5.29588 0 0 5.00433 0 11.7638C0 15.2997 1.449 18.3544 3.80855 20.4651C4.00696 20.6421 4.12629 20.891 4.13454 21.1563L4.20051 23.3141C4.22137 24.002 4.93253 24.4497 5.56171 24.1717L7.9688 23.1089C8.17303 23.0191 8.40151 23.0022 8.61641 23.0618C9.72293 23.366 10.8998 23.528 12.1271 23.528C18.9588 23.528 24.2547 18.5237 24.2547 11.7642C24.2547 5.00481 18.9593 0 12.1276 0ZM19.6428 8.62466L15.4205 15.1503C15.2061 15.4816 14.7641 15.5762 14.4328 15.3618L10.5214 12.831C10.3701 12.733 10.1741 12.7359 10.0256 12.8383L5.61701 15.8789C4.97377 16.3223 4.18741 15.5592 4.61188 14.9034L8.83471 8.37774C9.04912 8.04641 9.49105 7.95182 9.82189 8.16623L13.7343 10.6975C13.8856 10.7955 14.0816 10.7926 14.23 10.6902L18.6377 7.65008C19.2809 7.20621 20.0673 7.96977 19.6428 8.62563V8.62466Z" fill="white"/>
</svg>
