<svg width="37" height="37" viewBox="0 0 37 37" fill="none" xmlns="http://www.w3.org/2000/svg">
<rect width="36.5283" height="36.5283" rx="7.61006" fill="url(#paint0_linear_2186_8734)"/>
<path d="M18.4694 6.08789C11.6377 6.08789 6.3418 11.0922 6.3418 17.8517C6.3418 21.3876 7.7908 24.4423 10.1503 26.553C10.3488 26.73 10.4681 26.9789 10.4763 27.2442L10.5423 29.402C10.5632 30.0898 11.2743 30.5376 11.9035 30.2596L14.3106 29.1968C14.5148 29.107 14.7433 29.09 14.9582 29.1497C16.0647 29.4539 17.2416 29.6159 18.4689 29.6159C25.3006 29.6159 30.5965 24.6116 30.5965 17.8521C30.5965 11.0927 25.3011 6.08789 18.4694 6.08789ZM25.9846 14.7125L21.7623 21.2382C21.5479 21.5695 21.1059 21.6641 20.7746 21.4497L16.8632 18.9189C16.7119 18.8209 16.5159 18.8238 16.3674 18.9262L11.9588 21.9668C11.3156 22.4102 10.5292 21.6471 10.9537 20.9912L15.1765 14.4656C15.3909 14.1343 15.8328 14.0397 16.1637 14.2541L20.076 16.7854C20.2274 16.8834 20.4234 16.8805 20.5718 16.7781L24.9795 13.738C25.6227 13.2941 26.4091 14.0577 25.9846 14.7135V14.7125Z" fill="white"/>
<defs>
<linearGradient id="paint0_linear_2186_8734" x1="31" y1="0.528318" x2="1.5" y2="34.5283" gradientUnits="userSpaceOnUse">
<stop offset="0.0658384" stop-color="#FF6F62"/>
<stop offset="0.324647" stop-color="#C43FCE"/>
<stop offset="0.833453" stop-color="#168BFF"/>
</linearGradient>
</defs>
</svg>
