<svg width="25" height="25" viewBox="0 0 25 25" fill="none" xmlns="http://www.w3.org/2000/svg">
<g clip-path="url(#clip0_1448_9107)">
<path fill-rule="evenodd" clip-rule="evenodd" d="M24.3522 12.1761C24.3522 18.9008 18.9008 24.3522 12.1761 24.3522C5.45143 24.3522 0 18.9008 0 12.1761C0 5.45143 5.45143 0 12.1761 0C18.9008 0 24.3522 5.45143 24.3522 12.1761ZM12.6124 8.98893C11.4281 9.48153 9.06119 10.5011 5.51161 12.0476C4.93521 12.2768 4.63327 12.501 4.60578 12.7203C4.55933 13.0908 5.02336 13.2367 5.65526 13.4354C5.74121 13.4625 5.83028 13.4905 5.92158 13.5201C6.54327 13.7222 7.37956 13.9587 7.8143 13.968C8.20866 13.9766 8.64881 13.814 9.13476 13.4803C12.4512 11.2416 14.1632 10.11 14.2707 10.0856C14.3465 10.0684 14.4516 10.0468 14.5228 10.1101C14.594 10.1733 14.587 10.2932 14.5795 10.3253C14.5335 10.5213 12.712 12.2148 11.7693 13.0911C11.4755 13.3643 11.267 13.5581 11.2244 13.6024C11.129 13.7015 11.0317 13.7953 10.9382 13.8854C10.3606 14.4422 9.92749 14.8597 10.9622 15.5416C11.4594 15.8692 11.8573 16.1402 12.2542 16.4105C12.6877 16.7057 13.12 17.0001 13.6795 17.3668C13.822 17.4603 13.9581 17.5573 14.0907 17.6518C14.5952 18.0115 15.0484 18.3346 15.6083 18.2831C15.9337 18.2531 16.2698 17.9472 16.4404 17.0347C16.8438 14.8783 17.6367 10.2061 17.8199 8.28074C17.836 8.11205 17.8158 7.89617 17.7996 7.8014C17.7834 7.70664 17.7495 7.57161 17.6263 7.47166C17.4804 7.35329 17.2552 7.32832 17.1545 7.3301C16.6965 7.33816 15.9939 7.58248 12.6124 8.98893Z" fill="white"/>
</g>
<defs>
<clipPath id="clip0_1448_9107">
<rect width="24.3522" height="24.3522" fill="white"/>
</clipPath>
</defs>
</svg>
