<svg width="37" height="37" viewBox="0 0 37 37" fill="none" xmlns="http://www.w3.org/2000/svg">
<rect width="36.5283" height="36.5283" rx="7.61006" fill="#2CA3DC"/>
<g clip-path="url(#clip0_2186_8730)">
<path fill-rule="evenodd" clip-rule="evenodd" d="M30.6452 18.264C30.6452 24.9887 25.1937 30.4401 18.4691 30.4401C11.7444 30.4401 6.29297 24.9887 6.29297 18.264C6.29297 11.5393 11.7444 6.08789 18.4691 6.08789C25.1937 6.08789 30.6452 11.5393 30.6452 18.264ZM18.9054 15.0768C17.7211 15.5694 15.3542 16.589 11.8046 18.1355C11.2282 18.3647 10.9262 18.5889 10.8987 18.8082C10.8523 19.1787 11.3163 19.3246 11.9482 19.5233C12.0342 19.5504 12.1232 19.5784 12.2145 19.608C12.8362 19.8101 13.6725 20.0465 14.1073 20.0559C14.5016 20.0645 14.9418 19.9019 15.4277 19.5682C18.7442 17.3295 20.4562 16.1979 20.5637 16.1735C20.6395 16.1563 20.7446 16.1347 20.8158 16.198C20.887 16.2612 20.88 16.3811 20.8724 16.4132C20.8265 16.6092 19.0049 18.3026 18.0623 19.179C17.7684 19.4522 17.56 19.646 17.5174 19.6903C17.4219 19.7894 17.3246 19.8832 17.2311 19.9733C16.6536 20.5301 16.2205 20.9476 17.2551 21.6295C17.7523 21.9571 18.1502 22.2281 18.5472 22.4984C18.9806 22.7936 19.413 23.088 19.9724 23.4547C20.115 23.5482 20.2511 23.6452 20.3836 23.7397C20.8881 24.0994 21.3414 24.4225 21.9013 24.3709C22.2267 24.341 22.5627 24.0351 22.7334 23.1226C23.1368 20.9662 23.9297 16.294 24.1129 14.3686C24.129 14.1999 24.1088 13.9841 24.0926 13.8893C24.0763 13.7945 24.0424 13.6595 23.9193 13.5596C23.7734 13.4412 23.5482 13.4162 23.4474 13.418C22.9895 13.4261 22.2868 13.6704 18.9054 15.0768Z" fill="white"/>
</g>
<defs>
<clipPath id="clip0_2186_8730">
<rect width="24.3522" height="24.3522" fill="white" transform="translate(6.29297 6.08789)"/>
</clipPath>
</defs>
</svg>
