<svg width="37" height="37" viewBox="0 0 37 37" fill="none" xmlns="http://www.w3.org/2000/svg">
<rect width="36.5283" height="36.5283" rx="7.61006" fill="black"/>
<path d="M24.2966 18.3893C24.1917 18.339 24.0851 18.2907 23.9772 18.2443C23.7892 14.7809 21.8967 12.798 18.719 12.7777C18.7046 12.7777 18.6903 12.7777 18.6759 12.7777C16.7752 12.7777 15.1944 13.589 14.2215 15.0653L15.9691 16.2641C16.696 15.1614 17.8367 14.9263 18.6767 14.9263C18.6864 14.9263 18.6962 14.9263 18.7058 14.9264C19.7521 14.9331 20.5416 15.2373 21.0526 15.8305C21.4245 16.2624 21.6732 16.8593 21.7964 17.6125C20.8687 17.4549 19.8655 17.4064 18.793 17.4679C15.7717 17.6419 13.8294 19.4039 13.9599 21.8524C14.0261 23.0943 14.6448 24.1628 15.702 24.8607C16.5959 25.4508 17.7471 25.7393 18.9436 25.674C20.5236 25.5874 21.7632 24.9845 22.6279 23.8822C23.2847 23.0451 23.7001 21.9603 23.8835 20.5934C24.6365 21.0479 25.1945 21.6459 25.5028 22.3648C26.0268 23.5868 26.0574 25.595 24.4188 27.2322C22.9832 28.6664 21.2575 29.2869 18.6495 29.306C15.7564 29.2846 13.5685 28.3568 12.146 26.5484C10.8139 24.855 10.1254 22.4092 10.0998 19.2786C10.1254 16.1481 10.8139 13.7022 12.146 12.0088C13.5685 10.2005 15.7564 9.27268 18.6494 9.25118C21.5634 9.27284 23.7895 10.2051 25.2665 12.0222C25.9907 12.9133 26.5367 14.0339 26.8967 15.3405L28.9447 14.7941C28.5084 13.1858 27.8218 11.7999 26.8875 10.6506C24.994 8.321 22.2247 7.12729 18.6566 7.10254H18.6423C15.0814 7.1272 12.3431 8.32545 10.5035 10.664C8.86651 12.7449 8.02211 15.6405 7.99374 19.2701L7.99365 19.2786L7.99374 19.2872C8.02211 22.9168 8.86651 25.8124 10.5035 27.8934C12.3431 30.2318 15.0814 31.4301 18.6423 31.4547H18.6566C21.8224 31.4328 24.0539 30.6039 25.8923 28.7672C28.2974 26.3644 28.225 23.3524 27.4323 21.5034C26.8636 20.1775 25.7793 19.1006 24.2966 18.3893ZM18.8304 23.5285C17.5063 23.6031 16.1306 23.0087 16.0628 21.7357C16.0125 20.7918 16.7345 19.7385 18.9117 19.6131C19.161 19.5987 19.4057 19.5917 19.6461 19.5917C20.4369 19.5917 21.1767 19.6685 21.8493 19.8155C21.5984 22.9486 20.1269 23.4573 18.8304 23.5285Z" fill="white"/>
</svg>
