<svg width="21" height="25" viewBox="0 0 21 25" fill="none" xmlns="http://www.w3.org/2000/svg">
<path d="M16.3029 11.2868C16.198 11.2365 16.0915 11.1881 15.9835 11.1418C15.7956 7.67833 13.9031 5.6955 10.7254 5.6752C10.711 5.67512 10.6966 5.67512 10.6822 5.67512C8.78156 5.67512 7.20078 6.48642 6.22782 7.96275L7.97547 9.1616C8.70231 8.05884 9.84301 7.82375 10.6831 7.82375C10.6928 7.82375 10.7025 7.82375 10.7121 7.82384C11.7584 7.83051 12.548 8.13473 13.059 8.72798C13.4309 9.15989 13.6796 9.75673 13.8028 10.51C12.8751 10.3523 11.8718 10.3038 10.7993 10.3653C7.77808 10.5394 5.83579 12.3014 5.96624 14.7498C6.03243 15.9918 6.65116 17.0602 7.70836 17.7582C8.60221 18.3482 9.75344 18.6368 10.9499 18.5715C12.53 18.4848 13.7695 17.882 14.6343 16.7797C15.291 15.9426 15.7064 14.8578 15.8898 13.4909C16.6428 13.9453 17.2009 14.5433 17.5091 15.2622C18.0332 16.4843 18.0638 18.4925 16.4252 20.1296C14.9895 21.5639 13.2638 22.1843 10.6558 22.2035C7.7628 22.1821 5.57485 21.2543 4.15232 19.4459C2.82023 17.7525 2.13179 15.3066 2.10611 12.1761C2.13179 9.04555 2.82023 6.59965 4.15232 4.9063C5.57485 3.09792 7.76276 2.17014 10.6558 2.14864C13.5698 2.1703 15.7958 3.10255 17.2728 4.91965C17.997 5.81074 18.5431 6.93135 18.903 8.23793L20.951 7.69152C20.5147 6.08326 19.8281 4.6974 18.8939 3.54806C17.0004 1.21846 14.2311 0.0247515 10.6629 0H10.6486C7.08771 0.0246655 4.34942 1.22291 2.50984 3.56142C0.872862 5.64241 0.0284616 8.53794 8.87837e-05 12.1675L0 12.1761L8.87837e-05 12.1847C0.0284616 15.8142 0.872862 18.7098 2.50984 20.7908C4.34942 23.1293 7.08771 24.3276 10.6486 24.3522H10.6629C13.8288 24.3303 16.0603 23.5014 17.8986 21.6647C20.3038 19.2618 20.2313 16.2499 19.4386 14.4009C18.8699 13.075 17.7856 11.998 16.3029 11.2868ZM10.8368 16.4259C9.51264 16.5005 8.13698 15.9062 8.06915 14.6331C8.01888 13.6892 8.74089 12.636 10.9181 12.5105C11.1674 12.4962 11.4121 12.4891 11.6524 12.4891C12.4432 12.4891 13.183 12.566 13.8556 12.713C13.6048 15.8461 12.1332 16.3548 10.8368 16.4259Z" fill="white"/>
</svg>
