<svg width="453" height="453" viewBox="0 0 453 453" fill="none" xmlns="http://www.w3.org/2000/svg">
<path d="M448.114 226.047C447.924 181.653 434.581 140.344 411.788 105.844C372.4 46.2243 304.776 6.88574 227.963 6.88574C226.604 6.88574 225.275 6.88574 223.936 6.92878C207.752 7.20122 191.648 9.26513 175.918 13.0828C175.748 13.1168 175.581 13.1575 175.415 13.1983C169.784 14.5724 164.247 16.1654 158.804 17.9774C90.4777 41.3862 41.3566 106.174 41.3566 182.446C41.2999 218.077 52.2488 252.856 72.7065 282.029C104.129 326.91 156.224 356.251 215.175 356.251C218.115 356.251 221.037 356.175 223.941 356.024C234.254 355.518 244.502 354.092 254.561 351.761L254.69 351.737C258.732 350.791 262.721 349.709 266.656 348.491C266.722 348.473 266.788 348.457 266.858 348.432L267.084 348.357L296.35 377.625C273.36 387.237 248.845 392.689 223.947 393.727C220.927 393.854 217.888 393.918 214.831 393.92C113.005 393.92 28.0022 321.913 7.97051 226.04H7.83008C7.83008 226.376 7.83008 226.706 7.83008 227.044C7.83008 347.279 104.231 445.016 223.954 447.154C225.293 447.188 226.634 447.195 227.981 447.195C267.673 447.195 304.901 436.694 337.059 418.325C364.019 402.902 387.43 381.977 405.77 356.91C432.418 320.504 448.146 275.596 448.146 227.044C448.146 226.706 448.146 226.376 448.132 226.04M365.913 317.041C359.281 327.192 351.55 336.58 342.86 345.037L319.365 321.564L316.323 318.525L279.456 281.655C279.456 281.655 268.527 270.731 268.527 270.727C269.802 272.002 252.713 285.952 251.032 287.1C244.127 291.804 236.506 295.359 228.466 297.63C177.859 311.861 123.596 271.619 105.429 226.056C99.8875 212.136 97.0502 197.286 97.0688 182.303C97.0688 130.833 129.945 87.0531 175.848 70.8086C175.906 70.7797 175.967 70.7562 176.029 70.7384C180.781 69.0601 185.637 67.6922 190.566 66.6432C201.52 64.1052 212.706 62.6936 223.947 62.4303C225.287 62.3971 226.629 62.3805 227.974 62.3805C306.649 62.3805 372.436 117.551 388.762 191.311C391.277 202.72 392.575 214.364 392.633 226.047C392.633 226.382 392.633 226.713 392.633 227.051C392.685 259.018 383.385 290.302 365.877 317.048" fill="#EF5124"/>
<path d="M353.99 227.05C354.029 248.999 348.376 270.582 337.582 289.693L305.528 257.639L283.093 235.215C283.575 232.184 283.878 229.127 283.999 226.06C284.033 225.261 284.056 224.454 284.056 223.637C284.056 223.381 284.056 223.12 284.056 222.869C284.056 185.662 257.9 154.57 222.978 146.969C217.522 145.775 211.953 145.175 206.369 145.179C174.145 145.179 146.512 164.797 134.722 192.726C134.219 189.071 133.968 185.386 133.97 181.696C133.97 158.674 143.753 136.101 161.243 121.13C183.494 102.088 213.112 95.4378 241.764 99.585C269.623 103.619 296.522 116.955 316.536 136.783C340.507 160.502 353.143 192.57 353.981 226.047C353.981 226.387 353.981 226.713 353.981 227.052" fill="#EF5124"/>
</svg>
