<svg width="2000" height="668" viewBox="0 0 2000 668" fill="none" xmlns="http://www.w3.org/2000/svg">
<g clip-path="url(#clip0_2036_15843)">
<path d="M647.46 334.86C647.284 272.085 628.742 210.734 594.12 158.37C536.29 70.8298 437 13.0698 324.22 13.0698C322.22 13.0698 320.22 13.0698 318.3 13.1298C294.54 13.5208 270.896 16.5391 247.8 22.1298L247.06 22.2998C238.787 24.2998 230.657 26.6332 222.67 29.2998C122.35 63.7298 50.23 158.86 50.23 270.85C50.2274 304.362 56.8269 337.546 69.6516 368.506C82.4762 399.467 101.275 427.598 124.974 451.292C148.672 474.986 176.807 493.779 207.77 506.597C238.733 519.416 271.918 526.009 305.43 526C309.75 526 314.04 525.893 318.3 525.68C333.457 524.938 348.516 522.843 363.3 519.42H363.49C369.43 518.03 375.3 516.42 381.06 514.66L381.36 514.57L381.68 514.46L424.68 557.46C390.899 571.571 354.879 579.569 318.3 581.08C313.86 581.26 309.41 581.36 304.92 581.36C155.41 581.36 30.6 475.63 1.19 334.86H1C1 335.36 1 335.86 1 336.34C1 512.88 142.54 656.34 318.33 659.52C320.33 659.57 322.27 659.58 324.25 659.58C366.698 659.581 408.731 651.221 447.949 634.977C487.166 618.733 522.799 594.923 552.815 564.907C582.83 534.891 606.638 499.257 622.881 460.039C639.124 420.821 647.483 378.788 647.48 336.34C647.48 335.84 647.48 335.34 647.48 334.86M526.73 468.48C516.992 483.383 505.64 497.166 492.88 509.58L458.4 475.11L453.94 470.65L399.81 416.51L383.76 400.51C385.63 402.38 360.54 422.86 358.07 424.51C347.934 431.426 336.746 436.657 324.94 440C250.63 460.89 170.94 401.81 144.29 334.89C135.658 313.174 131.495 289.94 132.049 266.578C132.603 243.216 137.864 220.205 147.516 198.923C157.168 177.641 171.013 158.524 188.224 142.716C205.434 126.907 225.656 114.733 247.68 106.92C247.767 106.875 247.857 106.839 247.95 106.81C254.926 104.35 262.054 102.346 269.29 100.81C285.37 97.0858 301.789 95.0118 318.29 94.6198C320.29 94.6198 322.23 94.5498 324.21 94.5498C439.72 94.5498 536.32 175.55 560.29 283.86C563.986 300.611 565.897 317.706 565.99 334.86C565.99 335.36 565.99 335.86 565.99 336.34C566.067 383.275 552.413 429.208 526.71 468.48" fill="#EF5124"/>
<path d="M509.26 336.34C509.32 368.574 501.02 400.272 485.17 428.34L438.1 381.24L405.16 348.3C405.877 343.851 406.325 339.363 406.5 334.86C406.55 333.69 406.59 332.5 406.59 331.3C406.59 330.93 406.59 330.54 406.59 330.17C406.584 303.831 397.467 278.305 380.784 257.924C364.101 237.542 340.88 223.56 315.062 218.349C289.244 213.138 262.418 217.021 239.136 229.337C215.854 241.653 197.55 261.645 187.33 285.92C186.586 280.552 186.215 275.139 186.22 269.72C186.22 235.92 200.59 202.72 226.27 180.79C258.94 152.79 302.43 143.07 344.5 149.16C385.943 155.31 424.374 174.428 454.28 203.77C489.45 238.63 508.01 285.71 509.28 334.86C509.28 335.36 509.28 335.86 509.28 336.34" fill="#EF5124"/>
<path d="M848.72 269.332C827.151 269.332 808.212 264.861 791.903 255.917C775.77 246.799 763.232 233.997 754.288 217.513C745.52 201.029 741.136 181.652 741.136 159.381C741.136 137.11 745.52 117.733 754.288 101.249C763.232 84.7649 775.77 72.0512 791.903 63.1078C808.212 53.989 827.151 49.4297 848.72 49.4297C866.081 49.4297 881.337 52.3231 894.489 58.11C907.817 63.8969 918.777 72.3143 927.37 83.362C935.962 94.2344 941.486 107.299 943.941 122.555H902.644C900.189 110.631 894.226 101.337 884.757 94.6728C875.463 88.0091 863.45 84.6772 848.72 84.6772C827.677 84.6772 811.105 91.341 799.005 104.668C786.905 117.82 780.855 136.058 780.855 159.381C780.855 182.704 786.905 201.029 799.005 214.357C811.105 227.509 827.677 234.085 848.72 234.085C863.45 234.085 875.463 230.841 884.757 224.352C894.226 217.689 900.189 208.307 902.644 196.207H943.941C941.486 211.463 935.962 224.615 927.37 235.663C918.777 246.536 907.817 254.865 894.489 260.652C881.337 266.439 866.081 269.332 848.72 269.332ZM979.333 265.65V147.018H959.867V107.825H999.85V138.338H1010.9C1015.28 127.816 1022.03 119.837 1031.15 114.401C1040.27 108.965 1050.7 106.247 1062.45 106.247H1075.61V139.916H1060.61C1046.41 139.916 1035.71 144.037 1028.52 152.279C1021.51 160.521 1018 171.481 1018 185.159V265.65H979.333ZM1103.07 328.78V297.478H1138.85L1152.26 264.861L1083.35 107.825H1124.64L1171.99 219.618H1173.31L1219.07 107.825H1258.79L1191.19 265.65L1177.51 298.267C1173.31 307.912 1168.66 315.365 1163.57 320.626C1158.66 326.062 1150.77 328.78 1139.9 328.78H1103.07ZM1288.65 328.78V147.018H1269.19V107.825H1309.43V133.077H1320.48C1325.92 123.958 1333.28 116.944 1342.58 112.034C1351.87 107.123 1363.09 104.668 1376.25 104.668C1392.55 104.668 1406.23 108.088 1417.28 114.927C1428.5 121.591 1437.01 131.06 1442.8 143.336C1448.58 155.611 1451.48 170.078 1451.48 186.737C1451.48 203.397 1448.58 217.864 1442.8 230.139C1437.18 242.415 1429.03 251.972 1418.33 258.811C1407.64 265.475 1394.75 268.806 1379.67 268.806C1367.74 268.806 1357.48 266.527 1348.89 261.967C1340.3 257.408 1333.63 251.007 1328.9 242.765H1327.85V328.78H1288.65ZM1369.14 234.874C1383.35 234.874 1394.05 230.665 1401.23 222.248C1408.6 213.655 1412.28 201.818 1412.28 186.737C1412.28 171.656 1408.6 159.907 1401.23 151.49C1394.05 142.897 1383.35 138.601 1369.14 138.601C1356.69 138.601 1346.7 142.196 1339.16 149.385C1331.62 156.4 1327.85 166.045 1327.85 178.32V195.155C1327.85 207.43 1331.62 217.163 1339.16 224.352C1346.7 231.367 1356.69 234.874 1369.14 234.874ZM1526.46 265.65C1516.11 265.65 1508.05 263.019 1502.26 257.759C1496.65 252.498 1493.84 244.519 1493.84 233.822V138.338H1465.96V107.825H1494.11V60.4774H1532.51V107.825H1570.65V138.338H1533.04V234.874H1574.33V265.65H1526.46ZM1674.16 268.806C1657.15 268.806 1642.33 265.475 1629.71 258.811C1617.26 251.972 1607.52 242.415 1600.51 230.139C1593.67 217.864 1590.25 203.397 1590.25 186.737C1590.25 169.903 1593.67 155.348 1600.51 143.072C1607.52 130.797 1617.34 121.328 1629.97 114.664C1642.6 108 1657.33 104.668 1674.16 104.668C1691.35 104.668 1706.08 108 1718.35 114.664C1730.8 121.328 1740.45 130.797 1747.29 143.072C1754.13 155.348 1757.55 169.903 1757.55 186.737C1757.55 203.397 1754.13 217.952 1747.29 230.402C1740.45 242.678 1730.8 252.147 1718.35 258.811C1705.9 265.475 1691.17 268.806 1674.16 268.806ZM1674.16 234.611C1688.19 234.611 1699.06 230.402 1706.78 221.985C1714.49 213.392 1718.35 201.643 1718.35 186.737C1718.35 171.656 1714.49 159.907 1706.78 151.49C1699.06 143.072 1688.19 138.864 1674.16 138.864C1659.96 138.864 1648.91 143.072 1641.02 151.49C1633.3 159.907 1629.44 171.569 1629.44 186.474C1629.44 201.555 1633.3 213.392 1641.02 221.985C1648.91 230.402 1659.96 234.611 1674.16 234.611Z" fill="#EF5124"/>
<path d="M860.274 589.14H820.804V410.736H749.495V376.002H931.583V410.736H860.274V589.14ZM956.174 589.14V368.108H995.381V454.679H996.433C1001.52 446.083 1008.45 439.593 1017.22 435.207C1025.99 430.646 1036.34 428.366 1048.27 428.366C1068.09 428.366 1083.79 434.33 1095.37 446.259C1107.12 458.187 1113 474.063 1113 493.886V589.14H1073.79V501.254C1073.79 488.799 1070.46 479.326 1063.8 472.835C1057.13 466.345 1047.39 463.099 1034.59 463.099C1021.78 463.099 1012.05 466.345 1005.38 472.835C998.714 479.326 995.381 488.799 995.381 501.254V589.14H956.174ZM1161.53 589.14V470.467H1142.06V431.26H1182.05V461.784H1193.11C1197.49 451.258 1204.24 443.277 1213.37 437.838C1222.49 432.4 1232.93 429.681 1244.68 429.681H1257.84V463.362H1242.84C1228.63 463.362 1217.93 467.485 1210.73 475.73C1203.72 483.975 1200.21 494.938 1200.21 508.621V589.14H1161.53ZM1348.87 592.298C1331.85 592.298 1317.12 588.965 1304.66 582.299C1292.21 575.457 1282.56 565.897 1275.72 553.617C1269.05 541.162 1265.72 526.514 1265.72 509.674C1265.72 492.833 1269.05 478.361 1275.72 466.257C1282.38 453.977 1291.86 444.592 1304.13 438.102C1316.41 431.436 1330.8 428.103 1347.29 428.103C1363.43 428.103 1377.29 431.26 1388.86 437.575C1400.44 443.715 1409.39 452.662 1415.7 464.415C1422.02 475.993 1425.18 489.763 1425.18 505.727V519.41H1303.61C1305.01 532.742 1309.57 543.004 1317.29 550.196C1325.19 557.213 1335.62 560.722 1348.6 560.722C1358.25 560.722 1366.06 558.968 1372.02 555.459C1378.16 551.775 1382.46 546.337 1384.92 539.145H1424.39C1420.7 555.81 1412.2 568.879 1398.86 578.352C1385.71 587.649 1369.04 592.298 1348.87 592.298ZM1304.4 492.833H1387.55C1385.97 481.957 1381.76 473.712 1374.92 468.099C1368.08 462.31 1358.87 459.415 1347.29 459.415C1335.89 459.415 1326.5 462.31 1319.13 468.099C1311.77 473.888 1306.85 482.133 1304.4 492.833ZM1503.24 592.035C1484.83 592.035 1470.35 587.561 1459.83 578.615C1449.48 569.668 1444.3 557.827 1444.3 543.092C1444.3 527.655 1449.57 515.726 1460.09 507.306C1470.79 498.885 1486.14 494.675 1506.14 494.675H1554.29V488.36C1554.29 469.064 1543.07 459.415 1520.61 459.415C1501.67 459.415 1490.18 466.257 1486.14 479.94H1446.93C1450.09 463.099 1457.99 450.293 1470.62 441.522C1483.42 432.576 1500.09 428.103 1520.61 428.103C1543.77 428.103 1561.4 433.365 1573.5 443.891C1585.61 454.24 1591.66 469.414 1591.66 489.413V549.933H1610.34V589.14H1570.08V563.879H1559.03C1553.59 572.826 1546.22 579.755 1536.93 584.667C1527.8 589.579 1516.58 592.035 1503.24 592.035ZM1509.03 561.774C1517.63 561.774 1525.35 560.195 1532.19 557.038C1539.03 553.705 1544.38 549.319 1548.24 543.881C1552.28 538.268 1554.29 532.04 1554.29 525.199V521.515H1508.24C1490.53 521.515 1481.67 528.093 1481.67 541.25C1481.67 547.74 1484.04 552.828 1488.77 556.512C1493.68 560.02 1500.44 561.774 1509.03 561.774ZM1704.48 592.298C1688.35 592.298 1674.66 588.965 1663.44 582.299C1652.21 575.457 1643.61 565.897 1637.65 553.617C1631.86 541.162 1628.96 526.69 1628.96 510.2C1628.96 493.535 1631.77 479.063 1637.39 466.783C1643.17 454.504 1651.42 445.031 1662.12 438.365C1673 431.523 1685.98 428.103 1701.06 428.103C1712.99 428.103 1723.25 430.383 1731.85 434.944C1740.45 439.33 1747.02 445.732 1751.59 454.153H1752.64V368.108H1791.84V549.933H1811.32V589.14H1771.32V563.879H1760.27C1754.65 573.001 1747.2 580.018 1737.9 584.93C1728.6 589.842 1717.47 592.298 1704.48 592.298ZM1711.33 558.354C1723.96 558.354 1733.96 554.845 1741.32 547.828C1748.87 540.636 1752.64 530.9 1752.64 518.62V501.78C1752.64 489.5 1748.87 479.852 1741.32 472.835C1733.96 465.643 1723.96 462.047 1711.33 462.047C1697.29 462.047 1686.59 466.345 1679.22 474.94C1671.86 483.361 1668.17 495.114 1668.17 510.2C1668.17 525.286 1671.86 537.127 1679.22 545.723C1686.59 554.143 1697.29 558.354 1711.33 558.354ZM1905.53 592.298C1882.73 592.298 1864.75 587.561 1851.59 578.089C1838.44 568.44 1831.33 555.021 1830.28 537.829H1868.43C1869.66 546.074 1873.43 552.214 1879.75 556.248C1886.06 560.108 1895.18 562.037 1907.11 562.037C1927.29 562.037 1937.37 556.161 1937.37 544.407C1937.37 539.671 1935.79 535.987 1932.64 533.356C1929.66 530.725 1924.57 528.707 1917.38 527.304L1882.64 520.725C1851.77 514.761 1836.33 500.201 1836.33 477.045C1836.33 462.134 1842.21 450.293 1853.96 441.522C1865.71 432.576 1881.94 428.103 1902.64 428.103C1923.34 428.103 1939.74 432.664 1951.85 441.785C1964.13 450.732 1970.97 463.45 1972.37 479.94H1934.48C1932.55 472.046 1928.87 466.345 1923.43 462.836C1918.16 459.152 1910.53 457.31 1900.53 457.31C1891.59 457.31 1884.75 458.714 1880.01 461.52C1875.27 464.327 1872.91 468.45 1872.91 473.888C1872.91 477.922 1874.4 481.168 1877.38 483.624C1880.36 486.08 1885.1 487.922 1891.59 489.149L1927.11 495.991C1943.25 499.149 1955.09 504.411 1962.63 511.779C1970.18 519.147 1973.95 529.058 1973.95 541.513C1973.95 557.476 1968.07 569.931 1956.32 578.878C1944.57 587.824 1927.64 592.298 1905.53 592.298Z" fill="#EF5124"/>
</g>
<defs>
<clipPath id="clip0_2036_15843">
<rect width="2000" height="668" fill="white"/>
</clipPath>
</defs>
</svg>
